<svg width="24" height="24" viewBox="0 0 24 24" fill="none" xmlns="http://www.w3.org/2000/svg">
<g opacity="0.4">
<path d="M10.4899 2.23006L5.49991 4.10007C4.34991 4.53007 3.40991 5.89006 3.40991 7.12006V14.5501C3.40991 15.7301 4.18992 17.2801 5.13992 17.9901L9.43991 21.2001C10.8499 22.2601 13.1699 22.2601 14.5799 21.2001L18.8799 17.9901C19.8299 17.2801 20.6099 15.7301 20.6099 14.5501V7.12006C20.6099 5.89006 19.6699 4.53007 18.5199 4.10007L13.5299 2.23006C12.6799 1.92006 11.3199 1.92006 10.4899 2.23006Z" fill="white"/>
<path d="M5.58747 4.33423L5.58764 4.33417L10.5774 2.46426C10.5774 2.46424 10.5774 2.46423 10.5775 2.46421C10.9559 2.32289 11.4716 2.24756 12.0024 2.24756C12.5325 2.24756 13.0537 2.32269 13.4432 2.46455C13.4436 2.46467 13.4439 2.4648 13.4443 2.46493L18.4322 4.33417L18.4323 4.33423C18.95 4.5278 19.4345 4.93755 19.7905 5.45229C20.1466 5.96701 20.3599 6.56583 20.3599 7.12006V14.5501C20.3599 15.0904 20.1795 15.7341 19.8778 16.334C19.5761 16.9337 19.1659 17.4642 18.7303 17.7898L14.4303 20.9997L14.4297 21.0002C13.7756 21.4919 12.8986 21.7451 12.0099 21.7451C11.1212 21.7451 10.2442 21.4919 9.59014 21.0002L9.58946 20.9997L5.28959 17.7898C4.85392 17.4642 4.44368 16.9337 4.142 16.334C3.84028 15.7341 3.65991 15.0904 3.65991 14.5501V7.12006C3.65991 6.56583 3.87319 5.96701 4.22926 5.45229C4.58535 4.93755 5.0698 4.5278 5.58747 4.33423Z" stroke="#292D32" stroke-opacity="0.35" stroke-width="0.5"/>
</g>
<path d="M11.8998 11.2998C11.9198 11.2998 11.9398 11.2998 11.9598 11.2998H11.9798H11.9998C13.1498 11.2598 14.0498 10.3298 14.0598 9.16978C14.0598 7.98978 13.0998 7.02979 11.9198 7.02979C10.7398 7.02979 9.77979 7.98978 9.77979 9.16978C9.79979 10.3198 10.6998 11.2598 11.8998 11.2998Z" fill="#006E1C"/>
<path d="M14.1899 13.4096C12.9799 12.6096 11.0199 12.6096 9.7999 13.4096C9.2399 13.7896 8.90991 14.3296 8.90991 14.8896C8.90991 15.4596 9.2299 15.9796 9.7999 16.3596C10.4099 16.7596 11.1999 16.9696 11.9899 16.9696C12.7799 16.9696 13.5799 16.7696 14.1799 16.3596C14.7399 15.9796 15.0699 15.4396 15.0699 14.8796C15.0799 14.3096 14.7599 13.7896 14.1899 13.4096Z" fill="#006E1C"/>
</svg>
