<svg width="786" height="368" viewBox="0 0 786 368" fill="none" xmlns="http://www.w3.org/2000/svg">
<path d="M124.16 212.92C117.12 212.92 110.32 212.12 103.76 210.52C97.2 208.92 91.8 206.84 87.56 204.28L96.68 183.64C100.68 185.96 105.12 187.84 110 189.28C114.96 190.64 119.76 191.32 124.4 191.32C127.12 191.32 129.24 191.16 130.76 190.84C132.36 190.44 133.52 189.92 134.24 189.28C134.96 188.56 135.32 187.72 135.32 186.76C135.32 185.24 134.48 184.04 132.8 183.16C131.12 182.28 128.88 181.56 126.08 181C123.36 180.36 120.36 179.72 117.08 179.08C113.8 178.36 110.48 177.44 107.12 176.32C103.84 175.2 100.8 173.72 98 171.88C95.28 170.04 93.08 167.64 91.4 164.68C89.72 161.64 88.88 157.88 88.88 153.4C88.88 148.2 90.32 143.48 93.2 139.24C96.16 134.92 100.52 131.48 106.28 128.92C112.12 126.36 119.36 125.08 128 125.08C133.68 125.08 139.28 125.68 144.8 126.88C150.32 128.08 155.28 129.92 159.68 132.4L151.16 152.92C147 150.84 142.96 149.28 139.04 148.24C135.2 147.2 131.44 146.68 127.76 146.68C125.04 146.68 122.88 146.92 121.28 147.4C119.68 147.88 118.52 148.52 117.8 149.32C117.16 150.12 116.84 151 116.84 151.96C116.84 153.4 117.68 154.56 119.36 155.44C121.04 156.24 123.24 156.92 125.96 157.48C128.76 158.04 131.8 158.64 135.08 159.28C138.44 159.92 141.76 160.8 145.04 161.92C148.32 163.04 151.32 164.52 154.04 166.36C156.84 168.2 159.08 170.6 160.76 173.56C162.44 176.52 163.28 180.2 163.28 184.6C163.28 189.72 161.8 194.44 158.84 198.76C155.96 203 151.64 206.44 145.88 209.08C140.12 211.64 132.88 212.92 124.16 212.92ZM177.707 211V127H200.987L234.587 181.84H222.347L254.987 127H278.267L278.507 211H252.707L252.467 165.88H256.547L234.227 203.44H221.747L198.467 165.88H203.507V211H177.707ZM289.079 211L325.799 127H353.639L390.359 211H361.079L333.959 140.44H344.999L317.879 211H289.079ZM310.919 196.36L318.119 175.96H356.759L363.959 196.36H310.919ZM400.879 211V127H441.319C449.159 127 455.919 128.28 461.599 130.84C467.359 133.4 471.799 137.08 474.919 141.88C478.039 146.6 479.599 152.2 479.599 158.68C479.599 165.16 478.039 170.76 474.919 175.48C471.799 180.12 467.359 183.68 461.599 186.16C455.919 188.64 449.159 189.88 441.319 189.88H416.599L429.199 178.24V211H400.879ZM451.159 211L430.519 180.4H460.519L481.399 211H451.159ZM429.199 181.36L416.599 168.52H439.519C443.439 168.52 446.319 167.64 448.159 165.88C450.079 164.12 451.039 161.72 451.039 158.68C451.039 155.64 450.079 153.24 448.159 151.48C446.319 149.72 443.439 148.84 439.519 148.84H416.599L429.199 136V181.36ZM527.613 212.92C520.573 212.92 513.773 212.12 507.213 210.52C500.653 208.92 495.253 206.84 491.013 204.28L500.133 183.64C504.133 185.96 508.573 187.84 513.453 189.28C518.413 190.64 523.213 191.32 527.853 191.32C530.573 191.32 532.693 191.16 534.213 190.84C535.813 190.44 536.973 189.92 537.693 189.28C538.413 188.56 538.773 187.72 538.773 186.76C538.773 185.24 537.933 184.04 536.253 183.16C534.573 182.28 532.333 181.56 529.533 181C526.813 180.36 523.813 179.72 520.533 179.08C517.253 178.36 513.933 177.44 510.573 176.32C507.293 175.2 504.253 173.72 501.453 171.88C498.733 170.04 496.533 167.64 494.853 164.68C493.173 161.64 492.333 157.88 492.333 153.4C492.333 148.2 493.773 143.48 496.653 139.24C499.613 134.92 503.973 131.48 509.733 128.92C515.573 126.36 522.813 125.08 531.453 125.08C537.133 125.08 542.733 125.68 548.253 126.88C553.773 128.08 558.733 129.92 563.133 132.4L554.613 152.92C550.453 150.84 546.413 149.28 542.493 148.24C538.653 147.2 534.893 146.68 531.213 146.68C528.493 146.68 526.333 146.92 524.733 147.4C523.133 147.88 521.973 148.52 521.253 149.32C520.613 150.12 520.293 151 520.293 151.96C520.293 153.4 521.133 154.56 522.813 155.44C524.493 156.24 526.693 156.92 529.413 157.48C532.213 158.04 535.253 158.64 538.533 159.28C541.893 159.92 545.213 160.8 548.493 161.92C551.773 163.04 554.773 164.52 557.493 166.36C560.293 168.2 562.533 170.6 564.213 173.56C565.893 176.52 566.733 180.2 566.733 184.6C566.733 189.72 565.253 194.44 562.293 198.76C559.413 203 555.093 206.44 549.333 209.08C543.573 211.64 536.333 212.92 527.613 212.92ZM635.64 127H663.96V211H635.64V127ZM609.48 211H581.16V127H609.48V211ZM637.56 180.04H607.56V156.76H637.56V180.04ZM695.006 212.2C690.526 212.2 686.766 210.76 683.726 207.88C680.686 204.92 679.166 201.16 679.166 196.6C679.166 191.96 680.686 188.24 683.726 185.44C686.766 182.64 690.526 181.24 695.006 181.24C699.486 181.24 703.246 182.64 706.286 185.44C709.326 188.24 710.846 191.96 710.846 196.6C710.846 201.16 709.326 204.92 706.286 207.88C703.246 210.76 699.486 212.2 695.006 212.2Z" fill="#78DC77"/>
</svg>

