<svg width="795" height="673" viewBox="0 0 795 673" fill="none" xmlns="http://www.w3.org/2000/svg">
<path d="M134.296 602.776C127.784 602.776 121.494 602.036 115.427 600.556C109.359 599.076 104.365 597.152 100.443 594.784L108.878 575.694C112.578 577.84 116.685 579.578 121.198 580.91C125.786 582.168 130.226 582.797 134.518 582.797C137.033 582.797 138.994 582.649 140.4 582.353C141.88 581.983 142.953 581.502 143.619 580.91C144.285 580.244 144.618 579.467 144.618 578.58C144.618 577.174 143.841 576.064 142.287 575.25C140.733 574.436 138.661 573.77 136.071 573.252C133.556 572.66 130.781 572.068 127.747 571.476C124.713 570.81 121.642 569.959 118.535 568.923C115.501 567.887 112.689 566.518 110.099 564.816C107.583 563.115 105.549 560.895 103.995 558.157C102.441 555.345 101.664 551.867 101.664 547.724C101.664 542.914 102.996 538.548 105.66 534.627C108.397 530.631 112.43 527.449 117.758 525.081C123.159 522.713 129.856 521.529 137.847 521.529C143.101 521.529 148.281 522.084 153.386 523.194C158.492 524.304 163.08 526.006 167.149 528.3L159.269 547.28C155.421 545.356 151.684 543.913 148.059 542.951C144.507 541.989 141.029 541.508 137.625 541.508C135.11 541.508 133.112 541.73 131.632 542.174C130.152 542.618 129.079 543.21 128.413 543.95C127.821 544.69 127.525 545.504 127.525 546.392C127.525 547.724 128.302 548.797 129.856 549.611C131.41 550.35 133.445 550.979 135.96 551.497C138.55 552.015 141.362 552.57 144.396 553.162C147.504 553.754 150.574 554.568 153.608 555.604C156.642 556.64 159.417 558.009 161.933 559.711C164.522 561.413 166.594 563.633 168.148 566.37C169.702 569.108 170.479 572.512 170.479 576.582C170.479 581.317 169.11 585.683 166.372 589.679C163.709 593.601 159.713 596.782 154.385 599.224C149.058 601.592 142.361 602.776 134.296 602.776ZM183.823 601V523.305H205.356L236.434 574.029H225.112L255.302 523.305H276.835L277.057 601H253.194L252.972 559.267H256.745L236.101 594.007H224.557L203.025 559.267H207.687V601H183.823ZM286.835 601L320.799 523.305H346.549L380.513 601H353.431L328.347 535.736H338.558L313.474 601H286.835ZM307.036 587.459L313.696 568.59H349.435L356.095 587.459H307.036ZM390.243 601V523.305H427.647C434.899 523.305 441.152 524.489 446.405 526.857C451.733 529.225 455.84 532.629 458.725 537.068C461.611 541.434 463.054 546.614 463.054 552.607C463.054 558.601 461.611 563.781 458.725 568.146C455.84 572.438 451.733 575.731 446.405 578.025C441.152 580.318 434.899 581.465 427.647 581.465H404.783L416.437 570.699V601H390.243ZM436.749 601L417.658 572.697H445.406L464.719 601H436.749ZM416.437 573.585L404.783 561.709H425.983C429.608 561.709 432.272 560.895 433.974 559.267C435.75 557.639 436.638 555.419 436.638 552.607C436.638 549.796 435.75 547.576 433.974 545.948C432.272 544.32 429.608 543.506 425.983 543.506H404.783L416.437 531.63V573.585ZM507.464 602.776C500.952 602.776 494.663 602.036 488.595 600.556C482.528 599.076 477.533 597.152 473.611 594.784L482.047 575.694C485.746 577.84 489.853 579.578 494.367 580.91C498.955 582.168 503.394 582.797 507.686 582.797C510.202 582.797 512.163 582.649 513.569 582.353C515.048 581.983 516.121 581.502 516.787 580.91C517.453 580.244 517.786 579.467 517.786 578.58C517.786 577.174 517.009 576.064 515.455 575.25C513.902 574.436 511.83 573.77 509.24 573.252C506.724 572.66 503.949 572.068 500.915 571.476C497.882 570.81 494.811 569.959 491.703 568.923C488.669 567.887 485.857 566.518 483.268 564.816C480.752 563.115 478.717 560.895 477.163 558.157C475.609 555.345 474.832 551.867 474.832 547.724C474.832 542.914 476.164 538.548 478.828 534.627C481.566 530.631 485.599 527.449 490.926 525.081C496.328 522.713 503.024 521.529 511.016 521.529C516.269 521.529 521.449 522.084 526.555 523.194C531.66 524.304 536.248 526.006 540.318 528.3L532.437 547.28C528.59 545.356 524.853 543.913 521.227 542.951C517.675 541.989 514.198 541.508 510.794 541.508C508.278 541.508 506.28 541.73 504.8 542.174C503.32 542.618 502.247 543.21 501.581 543.95C500.989 544.69 500.693 545.504 500.693 546.392C500.693 547.724 501.47 548.797 503.024 549.611C504.578 550.35 506.613 550.979 509.129 551.497C511.719 552.015 514.531 552.57 517.564 553.162C520.672 553.754 523.743 554.568 526.777 555.604C529.81 556.64 532.585 558.009 535.101 559.711C537.691 561.413 539.763 563.633 541.317 566.37C542.871 569.108 543.648 572.512 543.648 576.582C543.648 581.317 542.279 585.683 539.541 589.679C536.877 593.601 532.881 596.782 527.554 599.224C522.226 601.592 515.529 602.776 507.464 602.776ZM607.382 523.305H633.576V601H607.382V523.305ZM583.186 601H556.992V523.305H583.186V601ZM609.158 572.364H581.41V550.831H609.158V572.364ZM662.291 602.11C658.148 602.11 654.67 600.778 651.858 598.114C649.046 595.376 647.64 591.899 647.64 587.681C647.64 583.389 649.046 579.948 651.858 577.359C654.67 574.769 658.148 573.474 662.291 573.474C666.435 573.474 669.913 574.769 672.725 577.359C675.536 579.948 676.942 583.389 676.942 587.681C676.942 591.899 675.536 595.376 672.725 598.114C669.913 600.778 666.435 602.11 662.291 602.11Z" fill="#006E1C"/>
<path opacity="0.4" d="M514.919 218.383V287.768C514.919 321.525 487.52 348.924 453.762 348.924H341.235C307.478 348.924 280.079 321.525 280.079 287.768V218.963C289.887 226.934 302.346 231.375 315.614 231.375C331.463 231.375 346.668 224.12 357.074 212.29C366.63 224.155 381.343 231.375 397.499 231.375C413.542 231.375 428.05 224.472 437.675 212.725C448.14 224.325 463.113 231.375 478.74 231.375C492.4 231.375 505.104 226.777 514.919 218.383Z" fill="white" stroke="#292D32" stroke-width="6.4375"/>
<path d="M435.998 80.0938H358.748L349.22 174.854C348.448 183.609 349.735 191.849 352.954 199.316C360.421 216.826 377.931 228.156 397.501 228.156C417.329 228.156 434.453 217.084 442.178 199.445C444.495 193.909 445.911 187.471 446.04 180.905V178.459L435.998 80.0938Z" fill="#006E1C"/>
<path opacity="0.6" d="M530.885 170.476L527.151 134.812C521.744 95.93 504.105 80.0938 466.381 80.0938H416.941L426.469 176.656C426.598 177.944 426.726 179.36 426.726 181.806C427.499 188.501 429.559 194.681 432.649 200.217C441.919 217.212 459.944 228.156 478.741 228.156C495.865 228.156 511.315 220.56 520.971 207.17C528.696 196.87 532.173 183.866 530.885 170.476Z" fill="#292D32" fill-opacity="0.35"/>
<path opacity="0.6" d="M327.845 80.0938C289.992 80.0938 272.482 95.93 266.946 135.199L263.47 170.605C262.182 184.381 265.916 197.771 274.027 208.2C283.812 220.946 298.876 228.156 315.614 228.156C334.411 228.156 352.436 217.213 361.577 200.475C364.925 194.681 367.114 187.986 367.757 181.034L377.8 80.2225H327.845V80.0938Z" fill="#292D32" fill-opacity="0.35"/>
<path d="M389.133 278.497C372.781 280.171 360.421 294.076 360.421 310.556V352.142H434.453V315.062C434.581 288.154 418.745 275.407 389.133 278.497Z" fill="#006E1C"/>
</svg>