<svg width="795" height="673" viewBox="0 0 795 673" fill="none" xmlns="http://www.w3.org/2000/svg">
<path d="M142.296 602.776C135.784 602.776 129.494 602.036 123.427 600.556C117.359 599.076 112.365 597.152 108.443 594.784L116.878 575.694C120.578 577.84 124.685 579.578 129.198 580.91C133.786 582.168 138.226 582.797 142.518 582.797C145.033 582.797 146.994 582.649 148.4 582.353C149.88 581.983 150.953 581.502 151.619 580.91C152.285 580.244 152.618 579.467 152.618 578.58C152.618 577.174 151.841 576.064 150.287 575.25C148.733 574.436 146.661 573.77 144.071 573.252C141.556 572.66 138.781 572.068 135.747 571.476C132.713 570.81 129.642 569.959 126.535 568.923C123.501 567.887 120.689 566.518 118.099 564.816C115.583 563.115 113.549 560.895 111.995 558.157C110.441 555.345 109.664 551.867 109.664 547.724C109.664 542.914 110.996 538.548 113.66 534.627C116.397 530.631 120.43 527.449 125.758 525.081C131.159 522.713 137.856 521.529 145.847 521.529C151.101 521.529 156.281 522.084 161.386 523.194C166.492 524.304 171.08 526.006 175.149 528.3L167.269 547.28C163.421 545.356 159.684 543.913 156.059 542.951C152.507 541.989 149.029 541.508 145.625 541.508C143.11 541.508 141.112 541.73 139.632 542.174C138.152 542.618 137.079 543.21 136.413 543.95C135.821 544.69 135.525 545.504 135.525 546.392C135.525 547.724 136.302 548.797 137.856 549.611C139.41 550.35 141.445 550.979 143.96 551.497C146.55 552.015 149.362 552.57 152.396 553.162C155.504 553.754 158.574 554.568 161.608 555.604C164.642 556.64 167.417 558.009 169.933 559.711C172.522 561.413 174.594 563.633 176.148 566.37C177.702 569.108 178.479 572.512 178.479 576.582C178.479 581.317 177.11 585.683 174.372 589.679C171.709 593.601 167.713 596.782 162.385 599.224C157.058 601.592 150.361 602.776 142.296 602.776ZM191.823 601V523.305H213.356L244.434 574.029H233.112L263.302 523.305H284.835L285.057 601H261.194L260.972 559.267H264.745L244.101 594.007H232.557L211.025 559.267H215.687V601H191.823ZM294.835 601L328.799 523.305H354.549L388.513 601H361.431L336.347 535.736H346.558L321.474 601H294.835ZM315.036 587.459L321.696 568.59H357.435L364.095 587.459H315.036ZM398.243 601V523.305H435.647C442.899 523.305 449.152 524.489 454.405 526.857C459.733 529.225 463.84 532.629 466.725 537.068C469.611 541.434 471.054 546.614 471.054 552.607C471.054 558.601 469.611 563.781 466.725 568.146C463.84 572.438 459.733 575.731 454.405 578.025C449.152 580.318 442.899 581.465 435.647 581.465H412.783L424.437 570.699V601H398.243ZM444.749 601L425.658 572.697H453.406L472.719 601H444.749ZM424.437 573.585L412.783 561.709H433.983C437.608 561.709 440.272 560.895 441.974 559.267C443.75 557.639 444.638 555.419 444.638 552.607C444.638 549.796 443.75 547.576 441.974 545.948C440.272 544.32 437.608 543.506 433.983 543.506H412.783L424.437 531.63V573.585ZM515.464 602.776C508.952 602.776 502.663 602.036 496.595 600.556C490.528 599.076 485.533 597.152 481.611 594.784L490.047 575.694C493.746 577.84 497.853 579.578 502.367 580.91C506.955 582.168 511.394 582.797 515.686 582.797C518.202 582.797 520.163 582.649 521.569 582.353C523.048 581.983 524.121 581.502 524.787 580.91C525.453 580.244 525.786 579.467 525.786 578.58C525.786 577.174 525.009 576.064 523.455 575.25C521.902 574.436 519.83 573.77 517.24 573.252C514.724 572.66 511.949 572.068 508.915 571.476C505.882 570.81 502.811 569.959 499.703 568.923C496.669 567.887 493.857 566.518 491.268 564.816C488.752 563.115 486.717 560.895 485.163 558.157C483.609 555.345 482.832 551.867 482.832 547.724C482.832 542.914 484.164 538.548 486.828 534.627C489.566 530.631 493.599 527.449 498.926 525.081C504.328 522.713 511.024 521.529 519.016 521.529C524.269 521.529 529.449 522.084 534.555 523.194C539.66 524.304 544.248 526.006 548.318 528.3L540.437 547.28C536.59 545.356 532.853 543.913 529.227 542.951C525.675 541.989 522.198 541.508 518.794 541.508C516.278 541.508 514.28 541.73 512.8 542.174C511.32 542.618 510.247 543.21 509.581 543.95C508.989 544.69 508.693 545.504 508.693 546.392C508.693 547.724 509.47 548.797 511.024 549.611C512.578 550.35 514.613 550.979 517.129 551.497C519.719 552.015 522.531 552.57 525.564 553.162C528.672 553.754 531.743 554.568 534.777 555.604C537.81 556.64 540.585 558.009 543.101 559.711C545.691 561.413 547.763 563.633 549.317 566.37C550.871 569.108 551.648 572.512 551.648 576.582C551.648 581.317 550.279 585.683 547.541 589.679C544.877 593.601 540.881 596.782 535.554 599.224C530.226 601.592 523.529 602.776 515.464 602.776ZM615.382 523.305H641.576V601H615.382V523.305ZM591.186 601H564.992V523.305H591.186V601ZM617.158 572.364H589.41V550.831H617.158V572.364ZM670.291 602.11C666.148 602.11 662.67 600.778 659.858 598.114C657.046 595.376 655.64 591.899 655.64 587.681C655.64 583.389 657.046 579.948 659.858 577.359C662.67 574.769 666.148 573.474 670.291 573.474C674.435 573.474 677.913 574.769 680.725 577.359C683.536 579.948 684.942 583.389 684.942 587.681C684.942 591.899 683.536 595.376 680.725 598.114C677.913 600.778 674.435 602.11 670.291 602.11Z" fill="#78DC77"/>
<path opacity="0.4" d="M514.919 218.383V287.768C514.919 321.525 487.52 348.924 453.762 348.924H341.235C307.478 348.924 280.079 321.525 280.079 287.768V218.963C289.887 226.934 302.346 231.375 315.614 231.375C331.463 231.375 346.668 224.12 357.074 212.29C366.63 224.155 381.343 231.375 397.499 231.375C413.542 231.375 428.05 224.472 437.675 212.725C448.14 224.325 463.113 231.375 478.74 231.375C492.4 231.375 505.104 226.777 514.919 218.383Z" fill="white" stroke="#A4A4A4" stroke-width="6.4375"/>
<path d="M435.998 80.0938H358.748L349.22 174.854C348.448 183.609 349.735 191.849 352.954 199.316C360.421 216.826 377.931 228.156 397.501 228.156C417.329 228.156 434.453 217.084 442.178 199.445C444.495 193.909 445.911 187.471 446.04 180.905V178.459L435.998 80.0938Z" fill="#78DC77"/>
<path opacity="0.6" d="M530.885 170.476L527.151 134.812C521.744 95.93 504.105 80.0938 466.381 80.0938H416.941L426.469 176.656C426.598 177.944 426.726 179.36 426.726 181.806C427.499 188.501 429.559 194.681 432.649 200.217C441.919 217.212 459.944 228.156 478.741 228.156C495.865 228.156 511.315 220.56 520.971 207.17C528.696 196.87 532.173 183.866 530.885 170.476Z" fill="#292D32" fill-opacity="0.35"/>
<path opacity="0.6" d="M327.845 80.0938C289.992 80.0938 272.482 95.93 266.946 135.199L263.47 170.605C262.182 184.381 265.916 197.771 274.027 208.2C283.812 220.946 298.876 228.156 315.614 228.156C334.411 228.156 352.436 217.213 361.577 200.475C364.925 194.681 367.114 187.986 367.757 181.034L377.8 80.2225H327.845V80.0938Z" fill="#292D32" fill-opacity="0.35"/>
<path d="M389.133 278.497C372.781 280.171 360.421 294.076 360.421 310.556V352.142H434.453V315.062C434.581 288.154 418.745 275.407 389.133 278.497Z" fill="#78DC77"/>
</svg>