<svg width="795" height="673" viewBox="0 0 795 673" fill="none" xmlns="http://www.w3.org/2000/svg">
<path d="M156.327 601V523.305H177.859L217.372 570.588H207.383V523.305H232.911V601H211.379L171.865 553.717H181.855V601H156.327ZM275.056 552.163H309.686V571.032H275.056V552.163ZM276.832 581.243H315.68V601H251.082V523.305H314.237V543.062H276.832V581.243ZM331.313 601V523.305H369.605C378.263 523.305 385.884 524.896 392.47 528.078C399.055 531.186 404.198 535.626 407.898 541.397C411.597 547.169 413.447 554.05 413.447 562.042C413.447 570.107 411.597 577.063 407.898 582.908C404.198 588.68 399.055 593.157 392.47 596.338C385.884 599.446 378.263 601 369.605 601H331.313ZM357.507 580.577H368.495C372.195 580.577 375.414 579.874 378.152 578.469C380.964 577.063 383.146 574.991 384.7 572.253C386.254 569.441 387.031 566.037 387.031 562.042C387.031 558.12 386.254 554.79 384.7 552.052C383.146 549.315 380.964 547.243 378.152 545.837C375.414 544.431 372.195 543.728 368.495 543.728H357.507V580.577ZM419.042 601L453.006 523.305H478.756L512.72 601H485.637L460.553 535.736H470.764L445.68 601H419.042ZM439.243 587.459L445.902 568.59H481.642L488.301 587.459H439.243ZM545.869 584.351L544.426 555.604L573.728 523.305H602.253L569.399 559.489L554.859 574.362L545.869 584.351ZM522.45 601V523.305H548.2V601H522.45ZM573.506 601L550.642 570.81L567.624 552.829L603.807 601H573.506ZM623.414 602.11C619.27 602.11 615.792 600.778 612.98 598.114C610.169 595.376 608.763 591.899 608.763 587.681C608.763 583.389 610.169 579.948 612.98 577.359C615.792 574.769 619.27 573.474 623.414 573.474C627.557 573.474 631.035 574.769 633.847 577.359C636.659 579.948 638.065 583.389 638.065 587.681C638.065 591.899 636.659 595.376 633.847 598.114C631.035 600.778 627.557 602.11 623.414 602.11Z" fill="#006E1C"/>
<path opacity="0.4" d="M514.919 218.383V287.767C514.919 321.525 487.52 348.924 453.762 348.924H341.235C307.478 348.924 280.079 321.525 280.079 287.767V218.963C289.887 226.934 302.346 231.375 315.614 231.375C331.463 231.375 346.668 224.119 357.074 212.29C366.63 224.155 381.343 231.375 397.499 231.375C413.542 231.375 428.05 224.472 437.675 212.725C448.14 224.325 463.113 231.375 478.74 231.375C492.4 231.375 505.104 226.777 514.919 218.383Z" fill="white" stroke="#292D32" stroke-width="6.4375"/>
<path d="M435.998 80.0938H358.748L349.22 174.854C348.448 183.609 349.735 191.849 352.954 199.316C360.421 216.826 377.931 228.156 397.501 228.156C417.329 228.156 434.453 217.084 442.178 199.445C444.495 193.909 445.911 187.471 446.04 180.905V178.459L435.998 80.0938Z" fill="#006E1C"/>
<path opacity="0.6" d="M530.885 170.476L527.151 134.812C521.744 95.93 504.105 80.0938 466.381 80.0938H416.941L426.469 176.656C426.598 177.944 426.726 179.36 426.726 181.806C427.499 188.501 429.559 194.681 432.649 200.217C441.919 217.212 459.944 228.156 478.741 228.156C495.865 228.156 511.315 220.56 520.971 207.17C528.696 196.87 532.173 183.866 530.885 170.476Z" fill="#292D32" fill-opacity="0.35"/>
<path opacity="0.6" d="M327.845 80.0938C289.992 80.0938 272.482 95.93 266.946 135.199L263.47 170.605C262.182 184.381 265.916 197.771 274.027 208.2C283.812 220.946 298.876 228.156 315.614 228.156C334.411 228.156 352.436 217.213 361.577 200.475C364.925 194.681 367.114 187.986 367.757 181.034L377.8 80.2225H327.845V80.0938Z" fill="#292D32" fill-opacity="0.35"/>
<path d="M389.133 278.497C372.781 280.171 360.421 294.076 360.421 310.556V352.142H434.453V315.062C434.581 288.154 418.745 275.407 389.133 278.497Z" fill="#006E1C"/>
</svg>