<svg width="210" height="266" viewBox="0 0 210 266" fill="none" xmlns="http://www.w3.org/2000/svg">
<path d="M2.36901e-05 247.424L0.637444 17.5038C0.655605 12.8502 2.51895 8.39388 5.81866 5.11242C9.11836 1.83096 13.585 -0.00762275 18.2385 2.37556e-05L191.879 0.481408C196.533 0.49959 200.989 2.36295 204.271 5.66265C207.552 8.96235 209.391 13.4289 209.383 18.0825L208.746 248.003C208.727 252.656 206.864 257.113 203.564 260.394C200.265 263.675 195.798 265.514 191.145 265.506L17.5037 265.025C12.8502 265.007 8.39386 263.144 5.11242 259.844C1.83098 256.544 -0.00761224 252.078 2.36901e-05 247.424Z" fill="#E6E6E6"/>
<path d="M13.5118 178.015L13.9216 30.2019C13.9386 25.8436 15.6836 21.6701 18.7739 18.5969C21.8642 15.5237 26.0473 13.8019 30.4056 13.8091L179.635 14.2228C183.994 14.2397 188.167 15.9847 191.241 19.075C194.314 22.1653 196.036 26.3485 196.029 30.7068L195.462 235.305C195.445 239.663 193.699 243.836 190.609 246.91C187.518 249.983 183.335 251.705 178.977 251.697L86.5322 251.441C67.119 251.365 48.5285 243.592 34.8393 229.827C21.1501 216.062 13.48 197.429 13.5118 178.015Z" fill="white"/>
<path d="M162.872 129.198H46.5112C44.6596 129.198 42.8837 128.463 41.5744 127.153C40.2651 125.844 39.5295 124.068 39.5295 122.217C39.5295 120.365 40.2651 118.589 41.5744 117.28C42.8837 115.97 44.6596 115.235 46.5112 115.235H162.872C164.724 115.235 166.5 115.97 167.809 117.28C169.118 118.589 169.854 120.365 169.854 122.217C169.854 124.068 169.118 125.844 167.809 127.153C166.5 128.463 164.724 129.198 162.872 129.198Z" fill="#006E1C"/>
<path d="M72.1106 90.9106H46.5112C44.6596 90.9106 42.8837 90.175 41.5744 88.8657C40.2651 87.5564 39.5295 85.7806 39.5295 83.9289C39.5295 82.0773 40.2651 80.3015 41.5744 78.9922C42.8837 77.6828 44.6596 76.9473 46.5112 76.9473H72.1106C73.9622 76.9473 75.738 77.6828 77.0474 78.9922C78.3567 80.3015 79.0922 82.0773 79.0922 83.9289C79.0922 85.7806 78.3567 87.5564 77.0474 88.8657C75.738 90.175 73.9622 90.9106 72.1106 90.9106Z" fill="#006E1C"/>
<path d="M162.872 190.584H46.5112C44.6596 190.584 42.8837 189.849 41.5744 188.54C40.2651 187.23 39.5295 185.454 39.5295 183.603C39.5295 181.751 40.2651 179.975 41.5744 178.666C42.8837 177.357 44.6596 176.621 46.5112 176.621H162.872C164.724 176.621 166.5 177.357 167.809 178.666C169.118 179.975 169.854 181.751 169.854 183.603C169.854 185.454 169.118 187.23 167.809 188.54C166.5 189.849 164.724 190.584 162.872 190.584Z" fill="#006E1C"/>
<path d="M162.872 159.892H46.5112C44.6596 159.892 42.8837 159.156 41.5744 157.847C40.2651 156.537 39.5295 154.762 39.5295 152.91C39.5295 151.058 40.2651 149.282 41.5744 147.973C42.8837 146.664 44.6596 145.928 46.5112 145.928H162.872C164.724 145.928 166.5 146.664 167.809 147.973C169.118 149.282 169.854 151.058 169.854 152.91C169.854 154.762 169.118 156.537 167.809 157.847C166.5 159.156 164.724 159.892 162.872 159.892Z" fill="#006E1C"/>
</svg>
